HIERARCHY
ROOT Hips
{
	OFFSET 0.00000 0.00000 0.00000
	CHANNELS 6 Xposition Yposition Zposition Zrotation Yrotation Xrotation 
	JOINT LHipJoint
	{
		OFFSET 0 0 0
		CHANNELS 3 Zrotation Yrotation Xrotation
		JOINT LeftUpLeg
		{
			OFFSET 1.24777 -1.64261 0.71711
			CHANNELS 3 Zrotation Yrotation Xrotation
			JOINT LeftLeg
			{
				OFFSET 2.49329 -6.85026 0.00000
				CHANNELS 3 Zrotation Yrotation Xrotation
				JOINT LeftFoot
				{
					OFFSET 2.36770 -6.50520 0.00000
					CHANNELS 3 Zrotation Yrotation Xrotation
					JOINT LeftToeBase
					{
						OFFSET 0.14820 -0.40718 2.21395
						CHANNELS 3 Zrotation Yrotation Xrotation
						End Site
						{
							OFFSET 0.00000 -0.00000 1.13491
						}
					}
				}
			}
		}
	}
	JOINT RHipJoint
	{
		OFFSET 0 0 0
		CHANNELS 3 Zrotation Yrotation Xrotation
		JOINT RightUpLeg
		{
			OFFSET -1.18320 -1.64261 0.71711
			CHANNELS 3 Zrotation Yrotation Xrotation
			JOINT RightLeg
			{
				OFFSET -2.46559 -6.77417 0.00000
				CHANNELS 3 Zrotation Yrotation Xrotation
				JOINT RightFoot
				{
					OFFSET -2.38450 -6.55136 0.00000
					CHANNELS 3 Zrotation Yrotation Xrotation
					JOINT RightToeBase
					{
						OFFSET -0.17454 -0.47954 2.02925
						CHANNELS 3 Zrotation Yrotation Xrotation
						End Site
						{
							OFFSET -0.00000 -0.00000 1.05076
						}
					}
				}
			}
		}
	}
	JOINT LowerBack
	{
		OFFSET 0 0 0
		CHANNELS 3 Zrotation Yrotation Xrotation
		JOINT Spine
		{
			OFFSET -0.02305 1.98660 0.00319
			CHANNELS 3 Zrotation Yrotation Xrotation
			JOINT Spine1
			{
				OFFSET -0.00718 1.99033 -0.00533
				CHANNELS 3 Zrotation Yrotation Xrotation
				JOINT Neck
				{
					OFFSET 0 0 0
					CHANNELS 3 Zrotation Yrotation Xrotation
					JOINT Neck1
					{
						OFFSET 0.00095 1.61015 0.10698
						CHANNELS 3 Zrotation Yrotation Xrotation
						JOINT Head
						{
							OFFSET -0.01060 1.59924 0.01317
							CHANNELS 3 Zrotation Yrotation Xrotation
							End Site
							{
								OFFSET -0.00458 1.63304 -0.00592
							}
						}
					}
				}
				JOINT LeftShoulder
				{
					OFFSET 0 0 0
					CHANNELS 3 Zrotation Yrotation Xrotation
					JOINT LeftArm
					{
						OFFSET 3.05381 1.47088 -0.01697
						CHANNELS 3 Zrotation Yrotation Xrotation
						JOINT LeftForeArm
						{
							OFFSET 4.25106 -0.00000 0.00000
							CHANNELS 3 Zrotation Yrotation Xrotation
							JOINT LeftHand
							{
								OFFSET 3.27592 -0.00000 0.00000
								CHANNELS 3 Zrotation Yrotation Xrotation
								JOINT LeftFingerBase
								{
									OFFSET 0 0 0
									CHANNELS 3 Zrotation Yrotation Xrotation
									JOINT LeftHandIndex1
									{
										OFFSET 0.65781 -0.00000 0.00000
										CHANNELS 3 Zrotation Yrotation Xrotation
										End Site
										{
											OFFSET 0.53034 -0.00000 0.00000
										}
									}
								}
								JOINT LThumb
								{
									OFFSET 0 0 0
									CHANNELS 3 Zrotation Yrotation Xrotation
									End Site
									{
										OFFSET 0.53844 -0.00000 0.53844
									}
								}
							}
						}
					}
				}
				JOINT RightShoulder
				{
					OFFSET 0 0 0
					CHANNELS 3 Zrotation Yrotation Xrotation
					JOINT RightArm
					{
						OFFSET -2.83695 1.31619 -0.22674
						CHANNELS 3 Zrotation Yrotation Xrotation
						JOINT RightForeArm
						{
							OFFSET -4.46073 -0.00000 0.00000
							CHANNELS 3 Zrotation Yrotation Xrotation
							JOINT RightHand
							{
								OFFSET -3.44416 -0.00000 0.00000
								CHANNELS 3 Zrotation Yrotation Xrotation
								JOINT RightFingerBase
								{
									OFFSET 0 0 0
									CHANNELS 3 Zrotation Yrotation Xrotation
									JOINT RightHandIndex1
									{
										OFFSET -0.61651 -0.00000 0.00000
										CHANNELS 3 Zrotation Yrotation Xrotation
										End Site
										{
											OFFSET -0.49705 -0.00000 0.00000
										}
									}
								}
								JOINT RThumb
								{
									OFFSET 0 0 0
									CHANNELS 3 Zrotation Yrotation Xrotation
									End Site
									{
										OFFSET -0.50464 -0.00000 0.50464
									}
								}
							}
						}
					}
				}
			}
		}
	}
}
MOTION
Frames: 8
Frame Time: .0083333
5.23 16.9002 -33.8986 0 0 0 0 0 0 -21 0 0 0 0 0 0 0 0 0 0 0 0 0 0 21 0 0 0 0 0 0 0 0 0 0 0 0 0 0 0 0 0 0 0 0 0 0 -16 0 0 21 0 0 11 0 0 0 -8 0 0 0 0 0 0 0 0 0 0 0 0 0 0 0 0 0 0 0 0 8 0 0 0 0 0 0 0 0 0 0 0 0 0 0 0 0 0
5.2300 16.9002 -33.8986 -5.4029 9.8098 10.4956 0.0000 0.0000 0.0000 -5.9433 -1.1854 -30.3108 6.3664 14.7742 46.4350 0.4810 7.4722 -17.9163 0.2050 -2.9156 -8.0439 0.0000 0.0000 0.0000 24.3627 1.4584 -24.6629 -2.8714 -10.4839 30.5584 -0.7022 -8.6870 -21.2821 -4.9466 -13.3234 40.5915 2.8606 2.1676 -1.9674 3.5397 2.7957 -0.0214 2.1107 1.4073 1.0403 -2.2560 -1.4134 -4.5406 -1.7328 -1.8566 -5.9152 -0.1673 -0.8601 -1.0582 -0.0000 0.0000 0.0000 -77.6870 8.9283 72.4255 101.5481 -59.4900 -69.9838 -0.0000 0.0000 -34.4893 -6.7677 19.0105 -2.2137 -7.1250 0.0000 -0.0000 -32.4604 46.1859 -1.0623 -0.0000 0.0000 0.0000 86.0174 -3.8845 37.8043 -18.2159 28.4328 -4.6516 0.0000 0.0000 18.8715 -24.9452 -17.1921 7.8283 7.1250 -0.0000 -0.0000 2.9084 -48.7994 -0.2728
5.2229 16.9430 -33.8367 -4.9912 9.2322 9.9764 0.0000 0.0000 0.0000 -6.6370 -0.6896 -29.8323 6.5330 14.9257 47.0852 0.3709 8.2434 -17.3427 0.0604 -1.5862 -4.3633 0.0000 0.0000 0.0000 24.1055 0.0798 -23.6057 -2.6729 -10.1457 29.4498 -0.6033 -8.3757 -20.0368 -4.6076 -12.9278 39.0989 2.8105 2.2249 -2.0773 3.3655 2.8491 0.3913 1.9779 1.4365 1.5315 -2.3703 -1.5432 -4.5012 -1.6281 -2.0311 -6.2892 -0.1156 -0.9401 -1.1790 0.0000 0.0000 0.0000 -78.1285 8.8621 71.5813 97.7460 -59.7721 -66.7031 -0.0000 0.0000 -32.7372 -4.9281 19.2446 -1.6279 -7.1250 0.0000 -0.0000 -31.0265 46.6289 -1.3783 0.0000 0.0000 0.0000 85.8776 -3.7964 37.9323 -18.3409 28.5915 -4.7112 0.0000 0.0000 18.8102 -25.0496 -17.1853 7.8622 7.1250 -0.0000 -0.0000 2.8054 -48.8084 -0.2637
5.1822 16.9422 -33.8015 -5.6662 8.3415 9.1289 0.0000 0.0000 0.0000 -5.8953 0.2702 -29.6926 6.8132 15.1725 48.1641 0.2906 8.7478 -16.8644 0.0164 -0.8280 -2.2757 0.0000 0.0000 0.0000 24.9428 0.9717 -22.0930 -2.6000 -10.0175 29.0333 -0.6933 -8.0791 -20.6785 -5.1653 -13.5675 41.5319 3.3034 2.4245 -1.5037 3.5790 3.1158 0.7375 1.9160 1.5746 1.5772 -2.4209 -1.6593 -4.5891 -1.6103 -2.1861 -6.5348 -0.1020 -1.0133 -1.2404 -0.0000 -0.0000 0.0000 -78.6332 8.7711 70.6844 93.7049 -59.9481 -63.2080 -0.0000 0.0000 -30.9215 -3.1735 18.2255 -0.9934 -7.1250 0.0000 -0.0000 -29.0143 45.9685 -0.7577 -0.0000 -0.0000 0.0000 85.7916 -3.8419 37.9775 -18.4971 28.7890 -4.7862 0.0000 0.0000 18.9711 -25.0024 -17.2451 7.8716 7.1250 -0.0000 -0.0000 2.8636 -48.8655 -0.2732
5.1595 16.9561 -33.8141 -5.0707 8.9016 9.5021 0.0000 0.0000 0.0000 -6.6035 -0.5703 -30.6948 7.0705 15.3910 49.1406 0.1847 9.5335 -16.3631 0.0101 0.6489 1.7832 0.0000 0.0000 0.0000 24.4954 -0.0439 -22.5870 -2.5200 -9.8742 28.5703 -0.5777 -8.4609 -19.8507 -4.7240 -13.0661 39.6165 3.0473 2.1552 -1.4781 3.4321 2.7717 0.6007 1.8917 1.3995 1.4197 -2.4615 -1.7819 -4.4003 -1.6236 -2.3643 -6.9164 -0.0961 -1.0943 -1.3914 -0.0000 -0.0000 0.0000 -79.1901 8.6687 69.8639 89.2714 -59.9980 -59.3690 -0.0000 0.0000 -29.0119 -1.7075 17.8193 -0.5227 -7.1250 0.0000 -0.0000 -27.5631 45.7943 -0.5852 -0.0000 -0.0000 0.0000 85.5247 -3.5253 38.2264 -18.4363 28.7122 -4.7570 0.0000 0.0000 18.6863 -25.0868 -17.2998 7.9255 7.1250 -0.0000 -0.0000 2.7925 -48.9378 -0.2714
5.1266 16.9585 -33.8132 -5.2888 8.6338 9.2295 0.0000 0.0000 0.0000 -6.5053 -0.4245 -31.1470 7.3477 15.6178 50.1774 0.1972 9.5421 -16.5393 0.1292 2.3168 6.3820 0.0000 0.0000 0.0000 24.8368 0.3761 -22.0250 -2.4705 -9.7840 28.2800 -0.5767 -8.6650 -20.0238 -4.7953 -13.1495 39.9305 3.1568 2.2119 -1.2973 3.5818 2.8426 0.8303 1.9856 1.4369 1.5516 -2.5225 -1.8699 -4.2801 -1.6057 -2.4938 -7.3859 -0.0768 -1.1495 -1.5595 -0.0000 0.0000 0.0000 -79.7060 7.9271 69.4563 84.7852 -59.8970 -55.4854 -0.0000 0.0000 -27.5893 -0.0923 18.7814 -0.0297 -7.1250 0.0000 -0.0000 -26.6165 46.8584 -1.3114 -0.0000 0.0000 0.0000 85.3024 -3.2125 38.0884 -18.4715 28.7566 -4.7739 0.0000 0.0000 18.6165 -25.1321 -17.4429 8.0045 7.1250 -0.0000 -0.0000 2.7776 -49.0995 -0.2810
5.0978 16.9634 -33.8059 -5.2977 8.4508 9.0241 0.0000 0.0000 0.0000 -6.6052 -0.3968 -31.5503 7.6032 15.8195 51.1203 0.1761 9.6385 -16.3723 0.2977 3.5083 9.6973 0.0000 0.0000 0.0000 24.9599 0.4333 -21.6585 -2.4434 -9.7342 28.1201 -0.5787 -8.6734 -20.0523 -4.8195 -13.1776 40.0371 3.1965 2.1978 -1.0842 3.6310 2.8278 0.9680 2.0084 1.4301 1.5732 -2.5784 -1.9591 -4.1892 -1.5854 -2.6220 -7.7391 -0.0582 -1.2062 -1.6866 0.0000 -0.0000 0.0000 -80.2256 7.6205 68.7693 80.6271 -59.6654 -51.8920 -0.0000 0.0000 -25.9002 1.5385 19.1134 0.5039 -7.1250 0.0000 -0.0000 -25.3387 47.3731 -1.5813 0.0000 -0.0000 0.0000 85.1045 -3.0187 38.1065 -18.5122 28.8080 -4.7935 0.0000 0.0000 18.5285 -25.1821 -17.5192 8.0559 7.1250 -0.0000 -0.0000 2.7445 -49.1900 -0.2838
5.0689 16.9670 -33.8009 -5.3137 8.2812 8.8460 0.0000 0.0000 0.0000 -6.7124 -0.4075 -31.9435 7.8348 15.9964 51.9656 0.1801 9.4482 -16.2005 0.4752 4.4210 12.2641 0.0000 0.0000 0.0000 25.0889 0.5823 -21.2769 -2.4078 -9.6683 27.9090 -0.5790 -8.7502 -20.1254 -4.8640 -13.2289 40.2316 3.2233 2.1755 -0.8547 3.6868 2.8049 1.0741 2.0433 1.4190 1.5523 -2.6332 -2.0320 -4.0942 -1.5645 -2.7279 -8.0588 -0.0394 -1.2522 -1.8044 0.0000 0.0000 0.0000 -80.7508 7.3656 68.0684 76.6326 -59.3139 -48.4502 -0.0000 0.0000 -24.2357 3.1656 19.5341 1.0594 -7.1250 0.0000 -0.0000 -24.0875 47.9762 -1.8710 0.0000 0.0000 0.0000 84.9085 -2.8430 38.1091 -18.5447 28.8490 -4.8092 0.0000 0.0000 18.4373 -25.2219 -17.5796 8.0969 7.1250 -0.0000 -0.0000 2.7179 -49.2616 -0.2858
